<svg width="204" height="204" viewBox="0 0 204 204" fill="none" xmlns="http://www.w3.org/2000/svg">
<g filter="url(#filter0_d_3_73)">
<path d="M154.897 24.8897C151.988 16.7792 139.822 13.0898 132.889 13.8829C125.951 14.6633 114.037 18.8651 114.402 29.396C114.402 29.396 113.917 28.6317 113.626 27.9984C108.942 18.099 96.7481 18.6899 88.8422 21.3941C81.5773 23.879 69.0221 32.0919 73.4863 42.2214L71.1458 42.9233C66.9689 37.0791 53.7055 39.0787 45.1283 44.7047C39.3059 48.5285 31.8113 59.7181 38.7717 69.1207C39.3542 69.908 39.9984 70.7448 40.678 71.5977C31.6623 67.8737 23.8997 69.514 18.201 74.7897C12.113 80.4099 10.3387 87.7823 16.0233 96.0285C16.2553 96.3579 16.5007 96.6827 16.7327 97.0121C20.7444 115.02 29.9233 140.634 42.6953 155.209C71.5967 188.2 100.529 182.293 117.707 176.953C192.705 153.653 181.825 100.868 179.32 94.241C176.87 87.7777 173.437 76.9571 168.626 72.0911C168.621 72.0785 156.578 29.5862 154.897 24.8897Z" fill="#FFCA28"/>
<path d="M66.3352 135.395C71.3061 136.323 76.9076 137.302 81.8088 138.464C93.5874 141.272 103.152 147.537 112.725 154.442C109.186 138.146 115.737 121.559 128.247 109.841C129.872 108.334 135.355 104.068 137.058 102.66C139.359 101.034 140.94 99.4867 138.88 96.5698C136.589 92.6273 133.054 89.5994 128.264 91.825C122.532 93.7738 116.549 94.8672 110.535 95.0648C98.2423 96.2212 89.6363 87.0277 89.7807 76.2954C89.7807 76.2954 85.7698 75.7237 84.504 78.3659C80.8439 85.9941 75.7938 86.3651 71.4764 87.4783C67.2576 88.5299 61.8724 88.0088 59.2366 84.5896C59.2366 84.5896 56.9222 86.1783 56.5358 86.4922C63.3562 103.414 45.2516 116.668 29.0938 107.093C28.3569 108.044 27.266 109.886 27.8577 110.872C35.4772 123.787 50.8492 132.595 66.3352 135.395Z" fill="#FFB300"/>
<path d="M127.871 57.6895C127.024 53.5121 124.695 47.9251 123.275 43.3802C120.688 35.1195 116.927 29.7968 115.044 27.6508C114.184 26.6627 113.235 27.0296 113.235 27.0296C112.93 29.5858 120.152 56.2853 121.021 60.0466L127.875 57.7021L127.871 57.6895ZM92.0381 92.9016C89.9795 95.5222 85.8105 98.3433 79.5513 98.8496C75.4422 99.1842 70.9964 97.1819 67.7362 93.3227C62.9489 87.6606 54.769 77.621 50.6612 74.6435C46.9721 71.9738 41.1136 69.6374 38.231 69.3692C33.5169 68.9384 30.2519 69.6466 30.2519 69.6466C32.4012 69.9964 40.104 73.0125 43.8422 76.5673C49.5419 81.9736 57.2137 89.9606 61.9353 98.703C64.3811 103.235 66.1555 106.067 64.7307 109.232C63.3964 112.225 59.5171 116.285 53.5145 118.24C49.5781 119.516 45.054 117.808 39.5991 114.601C30.4682 109.199 14.9157 94.1416 14.9157 94.1416C14.9157 94.1416 15.9209 97.5603 18.2467 101.655C20.5724 105.749 24.9218 111.702 31.0016 116.823C34.9242 120.132 43.7077 127.005 53.5008 125.53C63.2805 124.059 66.4001 119.61 69.3227 116.243C72.5956 112.46 72.9816 107.044 72.6056 105.552C72.6056 105.552 78.6358 109.393 88.0548 104.861C95.088 101.469 99.3505 94.9943 99.3945 95.0356L92.0381 92.9016ZM88.7312 73.4165L95.4429 70.2189C88.8222 55.968 80.2663 48.058 76.8334 44.6101C73.4005 41.1622 67.9124 40.4324 67.9124 40.4324C67.9736 40.5242 80.4503 57.366 88.7312 73.4165ZM154.3 23.1716C153.889 22.4947 152.78 22.9164 152.941 23.6927C154.216 29.9503 159.46 44.7144 158.189 53.9565C157.797 56.8244 154.271 57.8189 154.247 59.3631C154.216 61.1916 172.781 76.416 172.139 73.5354C165.71 44.7044 157.973 29.3276 154.3 23.1716ZM77.8634 138.856C77.1572 138.449 76.9883 137.563 77.4213 136.865C90.5614 115.418 105.128 103.812 134.237 89.3464L137.564 94.0563C107.66 110.429 96.6027 117.678 79.8155 138.498C79.3437 139.082 78.4946 139.218 77.8634 138.856ZM113.881 159.116C113.444 159.216 112.989 159.151 112.612 158.936C112.236 158.721 111.966 158.372 111.859 157.962C105.438 132.862 113.822 110.337 139.319 96.1334L142.899 101.8C114.672 118.67 112.086 143.44 115.219 157.137C115.266 157.346 115.269 157.564 115.227 157.778C115.186 157.991 115.1 158.196 114.975 158.38C114.851 158.565 114.69 158.725 114.502 158.851C114.314 158.977 114.103 159.068 113.881 159.116Z" fill="#EDA600"/>
<path d="M126.439 177.635C91.5798 189.559 71.8849 176.877 71.8849 176.877C71.8849 176.877 93.5487 183.404 123.345 173.564C145.499 166.254 163.802 152.44 173.426 132.45C181.129 116.442 179.456 104.613 177.2 96.056C173.986 83.9093 164.373 70.118 153.429 62.6868C143.962 56.258 139.352 56.5668 132.491 57.8004C125.63 59.034 116.88 64.9577 100.377 69.0667C93.9826 70.662 89.4404 73.5262 92.2824 82.0097C93.7185 86.2955 97.7809 91.1909 106.808 91.7529C115.64 92.3112 123.38 88.8465 129.593 85.763C131.19 84.9772 134.328 84.0729 138.2 88.0613C138.71 88.5915 148.982 101.213 151.382 103.605C153.782 105.997 153.002 107.687 151.255 108.341C149.509 108.994 146.698 107.363 144.819 106.061C142.941 104.759 137.398 99.7218 134.533 96.2769C131.795 92.9857 130.329 94.0227 128.411 94.5661C123.603 95.9569 112.343 100.908 100.786 97.533C92.5489 95.1366 89.1221 91.9684 85.6683 84.3143C82.1885 76.5845 83.8838 72.989 86.7631 69.0589C89.0531 65.9364 92.2388 64.2549 96.6722 62.9921C102.445 61.3697 109.543 59.5197 113.079 57.9016C116.615 56.2835 128.567 51.4343 133.246 50.8906C137.912 50.3515 147.569 50.1346 158.242 57.6022C169.757 65.6555 177.435 76.1486 182.506 90.972C187.222 104.761 187.477 119.949 180.034 134.882C171.97 151.098 162.166 165.415 126.439 177.635Z" fill="#EDA600"/>
</g>
<defs>
<filter id="filter0_d_3_73" x="8.57483" y="13.7776" width="181.293" height="176.967" filterUnits="userSpaceOnUse" color-interpolation-filters="sRGB">
<feFlood flood-opacity="0" result="BackgroundImageFix"/>
<feColorMatrix in="SourceAlpha" type="matrix" values="0 0 0 0 0 0 0 0 0 0 0 0 0 0 0 0 0 0 127 0" result="hardAlpha"/>
<feOffset dy="4"/>
<feGaussianBlur stdDeviation="2"/>
<feComposite in2="hardAlpha" operator="out"/>
<feColorMatrix type="matrix" values="0 0 0 0 0.919401 0 0 0 0 0 0 0 0 0 0 0 0 0 0.42 0"/>
<feBlend mode="normal" in2="BackgroundImageFix" result="effect1_dropShadow_3_73"/>
<feBlend mode="normal" in="SourceGraphic" in2="effect1_dropShadow_3_73" result="shape"/>
</filter>
</defs>
</svg>
